<svg width="0" height="0" class="hidden">
  <symbol xmlns:xlink="http://www.w3.org/1999/xlink" xmlns="http://www.w3.org/2000/svg" focusable="false" role="presentation" viewBox="0 0 24 24" id="svgexport-1">
    <path d="M12 1c6.074 0 10.999 4.925 10.999 11 0 6.074-4.925 10.999-11 10.999-6.074 0-10.999-4.925-10.999-11C1 5.925 5.925 1 12 1zm0 18.173a7.174 7.174 0 10-.001-14.347 7.174 7.174 0 000 14.347zm0-3.653a3.52 3.52 0 110-7.04 3.52 3.52 0 010 7.04z" fill-rule="evenodd" fill="#CC0000"></path>
  </symbol>
  <symbol xmlns:xlink="http://www.w3.org/1999/xlink" xmlns="http://www.w3.org/2000/svg" focusable="false" role="presentation" viewBox="0 0 24 24" id="svgexport-2">
    <path d="M20.5 17v1.5h-17V17h17zm0-5.75v1.5h-17v-1.5h17zm0-5.75V7h-17V5.5h17z" fill="#333333"></path>
  </symbol>
  <symbol xmlns="http://www.w3.org/2000/svg" xmlns:xlink="http://www.w3.org/1999/xlink" focusable="false" role="presentation" viewBox="0 0 24 24" id="svgexport-3">
    <defs>
      <path id="nds-Icon9038a" d="M9.06 12.5l7.47-7.47-1.06-1.06-8.53 8.53 8.53 8.53 1.06-1.06z"></path>
      <path id="nds-Icon9038a" d="M9.06 12.5l7.47-7.47-1.06-1.06-8.53 8.53 8.53 8.53 1.06-1.06z"></path>
    </defs>
    <use transform="scale(1 -1) rotate(90 24.235 0)" xlink:href="#nds-Icon9038a" fill="#333333"></use>
  </symbol>
  <symbol xmlns:xlink="http://www.w3.org/1999/xlink" xmlns="http://www.w3.org/2000/svg" id="svgexport-4" viewBox="0 0 40 40">
    <defs>
      <g id="searchIcon">
        <g stroke="none" stroke-width="1" fill="none" fill-rule="evenodd">
          <rect id="Rectangle-Copy-2" x="0" y="0" width="40" height="40"></rect>
          <path d="M19.19367,12.6181818 C22.28557,12.6181818 24.79227,15.2225455 24.79227,18.4349091 C24.79227,21.6472727 22.28557,24.2516364 19.19367,24.2516364 C16.10177,24.2516364 13.59507,21.6472727 13.59507,18.4349091 C13.59507,15.2225455 16.10177,12.6181818 19.19367,12.6181818 Z" id="Stroke-1" stroke="#00174F" stroke-width="1.7"></path>
          <line x1="23.06971" y1="23.3568727" x2="26.90851" y2="27.3452364" id="Stroke-3" stroke="#00174F" stroke-width="1.7"></line>
        </g>
      </g>
    </defs>
    <use href="#searchIcon" xlink:href="#searchIcon"></use>
  </symbol>
  <symbol xmlns:xlink="http://www.w3.org/1999/xlink" fill="none" xmlns="http://www.w3.org/2000/svg" viewBox="0 0 16 18" id="svgexport-8">
    <path d="M8 9C10.2091 9 12 7.20914 12 5C12 2.79086 10.2091 1 8 1C5.79086 1 4 2.79086 4 5C4 7.20914 5.79086 9 8 9Z" stroke="#00174F" stroke-width="1.2px" fill="none"></path>
    <path fill-rule="evenodd" clip-rule="evenodd" d="M14.5 14.6569C14.5 11.5327 11.5899 9 8 9C4.41015 9 1.5 11.5327 1.5 14.6569C1.5 17.781 14.5 17.781 14.5 14.6569Z" stroke="#00174F" stroke-width="1.2px" fill="none"></path>
  </symbol>
  <symbol xmlns:xlink="http://www.w3.org/1999/xlink" fill="none" xmlns="http://www.w3.org/2000/svg" viewBox="0 0 20 18" id="svgexport-9">
    <path fill-rule="evenodd" clip-rule="evenodd" d="M10.4481 3.09582C10.2734 3.34393 10.1248 3.5927 10 3.8268C9.87523 3.5927 9.72666 3.34393 9.55193 3.09582C8.87862 2.1397 7.67786 1 5.78125 1C4.43273 1 3.2011 1.55821 2.31326 2.57178C1.46642 3.53865 1 4.83357 1 6.21798C1 7.72496 1.58475 9.1266 2.84025 10.6289C3.96234 11.9717 5.57661 13.3557 7.4459 14.9584C8.14245 15.5557 8.86277 16.1733 9.62963 16.8484C9.75208 16.9562 9.87604 17 10 17C10.124 17 10.2479 16.9562 10.3473 16.8687C11.1372 16.1733 11.8576 15.5557 12.5542 14.9584C14.4234 13.3558 16.0377 11.9717 17.1597 10.6289C18.4152 9.12656 19 7.72496 19 6.21798C19 4.83357 18.5336 3.53865 17.6867 2.57174C16.7989 1.55818 15.5673 1 14.2188 1C12.3221 1 11.1214 2.1397 10.4481 3.09582Z" stroke="#00174F" stroke-width="1.2px" fill="none"></path>
  </symbol>
  <symbol xmlns:xlink="http://www.w3.org/1999/xlink" fill="none" xmlns="http://www.w3.org/2000/svg" viewBox="0 0 18 20" id="svgexport-10">
    <path fill-rule="evenodd" clip-rule="evenodd" d="M1.65044 7.12516L1.00243 17.7188C0.961863 18.3819 1.43494 18.9544 2.05906 18.9975C2.08351 18.9992 2.108 19 2.1325 19H15.8675C16.493 19 17 18.4613 17 17.7968C17 17.7708 16.9992 17.7448 16.9976 17.7188L16.3496 7.12516C16.3109 6.49228 15.8165 6 15.2195 6H2.78052C2.18359 6 1.68915 6.49228 1.65044 7.12516Z" stroke="#00174F" stroke-width="1.2px" fill="none"></path>
    <path d="M6 10L6.47704 3.04204C6.55569 1.89537 7.66342 1 9.00343 1C10.3396 1 11.4441 1.8928 11.5226 3.03617L12 10" stroke="#00174F" stroke-width="1.2px" fill="none"></path>
  </symbol>
  <symbol xmlns:xlink="http://www.w3.org/1999/xlink" xmlns="http://www.w3.org/2000/svg" focusable="false" role="presentation" viewBox="0 0 24 24" id="svgexport-11">
    <g fill="none" fill-rule="evenodd">
      <circle fill="#FFFFFF" cx="12.037" cy="12.037" r="10.8"></circle>
      <path d="M12 .5C18.351.5 23.5 5.649 23.5 12S18.351 23.5 12 23.5.5 18.351.5 12 5.649.5 12 .5zM12 2C6.477 2 2 6.477 2 12s4.477 10 10 10 10-4.477 10-10S17.523 2 12 2zm1.47 4.136l1.06 1.061L9.727 12l4.803 4.803-1.06 1.06L7.606 12l5.864-5.864z" fill="#333333" fill-rule="nonzero"></path>
    </g>
  </symbol>
  <symbol xmlns:xlink="http://www.w3.org/1999/xlink" xmlns="http://www.w3.org/2000/svg" focusable="false" role="presentation" viewBox="0 0 24 24" id="svgexport-12">
    <g fill="none" fill-rule="evenodd">
      <path d="M12 23.5C5.649 23.5.5 18.351.5 12S5.649.5 12 .5 23.5 5.649 23.5 12 18.351 23.5 12 23.5z" fill="#FFFFFF"></path>
      <path d="M12 .5C18.351.5 23.5 5.649 23.5 12S18.351 23.5 12 23.5.5 18.351.5 12 5.649.5 12 .5zM12 2C6.477 2 2 6.477 2 12s4.477 10 10 10 10-4.477 10-10S17.523 2 12 2zm-1.326 4.136L16.537 12l-5.863 5.864-1.06-1.061L14.415 12 9.613 7.197l1.06-1.06z" fill="#333333" fill-rule="nonzero"></path>
    </g>
  </symbol>
  <symbol xmlns:xlink="http://www.w3.org/1999/xlink" xmlns="http://www.w3.org/2000/svg" fill="none" viewBox="0 0 17 18" id="svgexport-13">
    <path fill-rule="evenodd" clip-rule="evenodd" d="M0.36399 1.22183C0.754514 0.831301 1.38768 0.831301 1.7782 1.22183L8.14216 7.58579L14.5061 1.22183C14.8966 0.831302 15.5298 0.831301 15.9203 1.22183C16.3109 1.61235 16.3109 2.24552 15.9203 2.63604L9.55638 9L15.9203 15.364C16.3109 15.7545 16.3109 16.3876 15.9203 16.7782C15.5298 17.1687 14.8966 17.1687 14.5061 16.7782L8.14216 10.4142L1.7782 16.7782C1.38768 17.1687 0.754514 17.1687 0.36399 16.7782C-0.0265347 16.3876 -0.0265344 15.7545 0.36399 15.364L6.72795 9L0.36399 2.63604C-0.0265344 2.24551 -0.0265347 1.61235 0.36399 1.22183Z" fill="#00174F"></path>
  </symbol>
  <symbol xmlns:xlink="http://www.w3.org/1999/xlink" xmlns="http://www.w3.org/2000/svg" focusable="false" role="presentation" viewBox="0 0 24 24" id="svgexport-14">
    <g fill="none">
      <path d="M2.72 15.43l8.44 1.2c1.38.11 1.82-.72 2-1.22l2.37.22-.47 1.35c-.23.66-.1 1.4.35 1.93l.78.94-.86.71-1.2-1.44a1.7 1.7 0 00-1.15-.6l-11.7-1.79a.22.22 0 01-.2-.25c.14-.91.57-1.15 1.64-1.05" fill="#AAAAAA"></path>
      <path d="M14.9 20.42a1.1 1.1 0 102.2.2 1.1 1.1 0 00-2.2-.2zM2 18.65a1.1 1.1 0 102.2.2 1.1 1.1 0 00-2.2-.2z" fill="#000"></path>
      <path d="M1.39 3.21a.24.24 0 00-.27.27l.07.68.75 6.81c.11 1.09.23 1.4 1.2 1.56l6.24.97c3.23.54 4.5-.15 4.5-.15l-.72 2.06 2.37.22.87-2.47 2.19-6.25c.22-.64.57-1 1.22-1.03l2.06.2c.86.07 1.61-1.09.75-1.17L1.4 3.21z" fill="#CC0000"></path>
      <path d="M11.04 8.87c.06-.56.56-.99 1.11-.93a1.02 1.02 0 01-.18 2.03 1.03 1.03 0 01-.93-1.1m-.96-.1c-.1 1.1.7 2.05 1.78 2.15a1.97 1.97 0 10-1.78-2.14m1.69 3.12a2.95 2.95 0 01.54-5.89 2.95 2.95 0 11-.54 5.89" fill="#FFFFFF"></path>
    </g>
  </symbol>
  <symbol xmlns:xlink="http://www.w3.org/1999/xlink" fill="none" xmlns="http://www.w3.org/2000/svg" focusable="false" role="presentation" viewBox="0 0 24 24" id="svgexport-15">
    <path d="M22.5 3.75h-21c-.83 0-1.5.67-1.5 1.5v13.5c0 .83.67 1.5 1.5 1.5h21c.83 0 1.5-.67 1.5-1.5V5.25c0-.83-.67-1.5-1.5-1.5z" fill="#CC0000"></path>
    <path fill-rule="evenodd" clip-rule="evenodd" d="M1.5 3.75c-.83 0-1.5.67-1.5 1.5v13.5c0 .83.67 1.5 1.5 1.5h21c.83 0 1.5-.67 1.5-1.5V5.25c0-.83-.67-1.5-1.5-1.5h-21zm.19.56c-.62 0-1.13.5-1.13 1.13v13.12c0 .62.5 1.13 1.13 1.13H22.3c.62 0 1.13-.5 1.13-1.13V5.44c0-.62-.5-1.13-1.13-1.13H1.7z" fill="#666666" fill-opacity="0.6"></path>
    <path d="M3.05 10.13A1.88 1.88 0 014.98 12a1.9 1.9 0 01-1.93 1.88A1.9 1.9 0 011.13 12a1.9 1.9 0 011.92-1.88zm11.82.22c.72 0 1.31.42 1.4 1.13h-.7a.7.7 0 00-.7-.55c-.58 0-.88.45-.88 1.08 0 .6.29 1.06.88 1.06.4 0 .68-.26.74-.7h.68c-.07.79-.63 1.28-1.42 1.28-.99 0-1.59-.71-1.59-1.64 0-.93.59-1.66 1.59-1.66zm-1.76.07v3.15h-.61v-.29h-.01a.78.78 0 01-.71.36c-.67 0-1.02-.52-1.05-1.13v-.1c0-.63.36-1.18 1.03-1.18a.8.8 0 01.7.34v-1.15h.65zm9.77 0v3.15h-.62v-.29a.78.78 0 01-.72.36c-.7 0-1.05-.57-1.05-1.22v-.01c0-.63.36-1.18 1.04-1.18.27-.01.54.11.7.34v-1.15h.64zm-13.44.81c.74 0 1.15.57 1.15 1.24v.11h-1.7c.02.4.2.58.58.58.24 0 .46-.13.5-.3h.57c-.17.52-.53.78-1.1.78-.74 0-1.2-.5-1.2-1.2s.5-1.2 1.2-1.2zm8.13 0c.69 0 1.02.22 1.02.64v1.1c0 .13.02.17.12.18h.06v.4a.58.58 0 01-.26.06c-.3 0-.46-.09-.51-.3-.16.19-.43.32-.82.32-.48 0-.8-.25-.8-.68h.01a.6.6 0 01.2-.49c.14-.11.33-.18.65-.22l.3-.03c.28-.04.41-.09.41-.26 0-.26-.19-.3-.4-.3-.28 0-.42.1-.44.34h-.64c.03-.5.45-.77 1.1-.77zm2.76 0l.14.02v.59a1.22 1.22 0 00-.23-.02c-.47 0-.64.3-.64.73v1.03h-.64v-2.29h.6v.43h.02c.13-.3.42-.48.75-.49zM7.2 10.42c.57 0 .94.38.94.87 0 .4-.17.66-.5.79.36.1.44.45.46.73l.02.18c0 .3.04.47.12.58h-.71a2.02 2.02 0 01-.1-.55c-.03-.44-.1-.68-.55-.68h-.72v1.23h-.7v-3.15H7.2zm-4.15.33c-.71 0-1.28.56-1.28 1.25 0 .7.57 1.25 1.28 1.25.71 0 1.29-.56 1.29-1.25 0-.33-.14-.65-.38-.89a1.3 1.3 0 00-.91-.36zm14.9 1.7c-.05.05-.14.08-.31.1l-.08.02c-.33.03-.53.1-.53.35 0 .18.12.3.4.3.34 0 .52-.19.52-.52v-.25zm-6.02-.74c-.37 0-.56.28-.56.72 0 .37.17.74.56.74.35 0 .53-.25.55-.66v-.09c0-.4-.16-.71-.55-.71zm9.77 0c-.37 0-.57.28-.57.72 0 .37.18.74.57.74.34 0 .53-.25.55-.66v-.08c0-.42-.16-.72-.55-.72zm-18.65-.35c.18 0 .34.07.47.19a.63.63 0 01-.22 1.05.67.67 0 01-.72-.14.63.63 0 01-.14-.7c.1-.22.3-.37.53-.4h.08zm6.37.35a.5.5 0 00-.37.13.48.48 0 00-.16.35h1.04c-.06-.34-.21-.48-.51-.48zm-2.48-.75h-.78v.89h.79c.3 0 .48-.12.48-.45s-.17-.44-.49-.44z" fill="#FFFFFF"></path>
  </symbol>
  <symbol xmlns:xlink="http://www.w3.org/1999/xlink" xmlns="http://www.w3.org/2000/svg" focusable="false" role="presentation" viewBox="0 0 24 24" id="svgexport-16">
    <g fill="none" fill-rule="evenodd">
      <path d="M21.5 7v3.25h-1V22.5h-17V10.25h-1V7h19z" fill="#CC0000"></path>
      <path d="M20.5 10.25v1.25h-17v-1.25h17zm-7.082-7.739c.694-.772 1.746-1.143 2.739-.969A2.505 2.505 0 0118.086 3.1a2.944 2.944 0 01-.17 2.56c-.411.712-1.091 1.184-1.866 1.292-.327.045-.652.043-.935.045L14.829 7h-.159c-.38 0-1.332-.007-2.064-.013-.194 0-.365-.003-.512-.003h-.11c-.155.001-.356.003-.588.003-.793.006-1.848.013-2.15.013h-.074l-.286-.003c-.287 0-.608 0-.933-.044-.777-.109-1.458-.58-1.868-1.293a2.944 2.944 0 01-.171-2.56 2.508 2.508 0 011.93-1.558c.994-.173 2.045.198 2.738.97.439.49.924 1.09 1.418 1.746.494-.656.979-1.256 1.418-1.747zm2.449.69c-.421-.072-.891.097-1.195.434-.42.467-.883 1.04-1.36 1.673l1.488.007.316-.002c.26.004.492.001.7-.029.257-.035.49-.205.642-.465.186-.325.21-.73.068-1.087a.822.822 0 00-.66-.53zm-7.592-.015l-.142.015a.821.821 0 00-.658.532c-.145.355-.12.761.068 1.086.089.152.289.416.643.466.208.028.448.028.698.028l.319.002c.084-.002.778-.003 1.485-.007a26.23 26.23 0 00-1.36-1.673c-.304-.338-.772-.508-1.195-.434z" fill="#840000"></path>
      <path d="M12 13.25c1.93 0 3.5 1.57 3.5 3.5s-1.57 3.5-3.5 3.5-3.5-1.57-3.5-3.5 1.57-3.5 3.5-3.5zm0 1.166l-.16.005a2.333 2.333 0 00.16 4.662l.16-.005a2.333 2.333 0 00-.16-4.662zm0 1.167a1.166 1.166 0 110 2.333 1.166 1.166 0 010-2.333z" fill="#FFFFFF"></path>
    </g>
  </symbol>
  <symbol xmlns:xlink="http://www.w3.org/1999/xlink" xmlns="http://www.w3.org/2000/svg" focusable="false" role="presentation" viewBox="0 0 24 24" id="svgexport-20">
    <g fill="none" fill-rule="evenodd">
      <path fill="#CFB597" d="M.602 18.215h14.114V4.102H.602z"></path>
      <path d="M7.658 7.658a3.498 3.498 0 013.13 5.068 3.502 3.502 0 01-6.63-1.568c0-1.932 1.568-3.5 3.5-3.5zm0 1.167a2.334 2.334 0 10.002 4.668 2.334 2.334 0 00-.002-4.668zm0 1.167a1.166 1.166 0 11.002 2.332 1.166 1.166 0 01-.002-2.332zm15.944 8.223v-2.578l-4.755-5.786h-4.131v8.364z" fill="#CC0000"></path>
      <path d="M16.29 13.843l-.007-2.423 1.816.009 1.983 2.414c.005.006-3.793 0-3.793 0" fill="#FFFFFF"></path>
      <path d="M5.444 16.392a2.216 2.216 0 012.214 2.22 2.222 2.222 0 11-2.214-2.22zm13.33 0a2.216 2.216 0 012.214 2.22 2.222 2.222 0 11-2.214-2.22z" fill="#333333"></path>
    </g>
  </symbol>
  <symbol xmlns:xlink="http://www.w3.org/1999/xlink" fill="none" xmlns="http://www.w3.org/2000/svg" viewBox="0 0 24 24" id="svgexport-22">
    <circle cx="12" cy="12" fill="#666666" r="12"></circle>
    <path clip-rule="evenodd" d="M18.1902 9.11027C17.9138 6.98128 16.6484 5.54907 14.673 4.76183C13.1571 4.158 11.6032 4.19809 10.0535 4.64333C8.94768 4.96121 8.00541 5.54942 7.26145 6.436C6.49621 7.34776 6.08006 8.40463 5.96759 9.58709C5.84662 10.8579 6.15208 12.0127 6.89816 13.0486C7.14118 13.386 7.44629 13.657 7.8156 13.8515C8.0643 13.982 8.131 13.9508 8.19769 13.6815C8.25978 13.4307 8.30803 13.1753 8.38785 12.9305C8.46874 12.6811 8.46129 12.4682 8.27149 12.2681C8.19557 12.1883 8.14803 12.0783 8.09623 11.9775C7.22455 10.2927 7.68469 8.09988 9.20844 6.92487C10.6201 5.83608 12.1992 5.67785 13.8372 6.32176C14.965 6.76487 15.7008 7.62449 15.9796 8.80162C16.3188 10.2356 16.1293 11.6281 15.395 12.9141C14.9068 13.7691 14.1898 14.3332 13.1613 14.3946C12.3993 14.4397 11.705 13.9788 11.5734 13.209C11.5255 12.9283 11.5769 12.6559 11.655 12.3877C11.8511 11.7097 12.0541 11.0335 12.2474 10.3545C12.3531 9.98337 12.4149 9.60518 12.3907 9.21564C12.3404 8.40356 11.6865 7.90795 10.8954 8.09456C10.3497 8.22334 9.99604 8.59195 9.76437 9.07763C9.36135 9.9227 9.40179 10.788 9.69909 11.6526C9.74237 11.7789 9.75124 11.8928 9.72109 12.0194C9.43585 13.215 9.1797 14.418 8.86289 15.6051C8.55637 16.7524 8.41978 17.9069 8.56275 19.0854C8.5844 19.2649 8.69047 19.5846 8.69047 19.5846L9.19141 19.6906C9.20631 19.6718 9.27975 19.5381 9.35106 19.3976C9.90557 18.3085 10.3508 17.5184 10.5793 16.4626C10.6875 15.9638 10.834 15.4738 10.9663 14.9807C10.9802 14.9289 10.972 14.8519 11.0348 14.8352C11.1054 14.8164 11.121 14.897 11.1512 14.9392C11.2963 15.1428 11.48 15.3035 11.6901 15.4362C12.2471 15.7889 12.8551 15.9191 13.5118 15.8818C14.6382 15.8176 15.6121 15.3983 16.4054 14.6075C17.933 13.0851 18.4606 11.1931 18.1902 9.11027Z" fill="#FFFFFF" fill-rule="evenodd"></path>
  </symbol>
  <symbol xmlns:xlink="http://www.w3.org/1999/xlink" fill="none" xmlns="http://www.w3.org/2000/svg" viewBox="0 0 24 24" id="svgexport-23">
    <circle cx="12" cy="12" fill="#666666" r="12"></circle>
    <path clip-rule="evenodd" d="M14.6777 6.81326H16.0142V3.90483L14.0012 3.90235C11.1492 3.90235 9.79605 5.59958 9.79605 8.01594V10.3049H7.56274V13.0686H9.79605V20.097H13.1458V13.0686H15.3791L16.0131 10.306H13.1458V8.41896C13.1458 7.64662 13.568 6.81326 14.6777 6.81326Z" fill="#FFFFFF" fill-rule="evenodd"></path>
  </symbol>
  <symbol xmlns:xlink="http://www.w3.org/1999/xlink" fill="none" xmlns="http://www.w3.org/2000/svg" viewBox="0 0 24 24" id="svgexport-24">
    <circle cx="12" cy="12" fill="#666666" r="12"></circle>
    <path clip-rule="evenodd" d="M12.0095 5.97486C11.6889 5.97486 11.3684 5.97296 11.0478 5.97106C10.3324 5.96681 9.61694 5.96257 8.90202 5.97947C7.28426 6.01743 6.28912 6.77523 5.99502 8.16842C5.93258 8.46394 5.8861 8.7694 5.88433 9.07096C5.88243 9.45973 5.87989 9.84854 5.87735 10.2374V10.2374V10.2374C5.86708 11.8101 5.8568 13.383 5.88894 14.9549C5.92868 16.9058 6.91494 17.9491 8.797 18.0183C10.9228 18.0964 13.0518 18.09 15.1776 18.0197C16.7453 17.9679 17.6773 17.2133 17.9767 15.8585C18.0303 15.6165 18.081 15.3678 18.0824 15.122C18.0853 14.5507 18.0955 13.9792 18.1057 13.4077C18.1353 11.7423 18.165 10.0767 18.0147 8.41498C17.8951 7.09275 17.0093 6.22923 15.692 6.04865C14.8777 5.93677 14.0601 5.95225 13.2426 5.96772C12.8314 5.97551 12.4202 5.98329 12.0095 5.97486ZM4.44556 8.52107L4.45941 8.44877C4.58716 7.7817 4.71484 7.11496 5.07847 6.52193C5.93737 5.11986 7.28089 4.58168 8.82947 4.54371C10.9414 4.49227 13.0566 4.49334 15.1685 4.54478C16.6025 4.57955 17.8786 5.05175 18.7521 6.29452C19.314 7.09488 19.5234 8.01091 19.5375 8.95779C19.5684 10.9878 19.5826 13.0192 19.5358 15.0485C19.4985 16.683 18.9302 18.0776 17.3997 18.9088C16.693 19.2923 15.9182 19.4591 15.1274 19.4683C13.042 19.4924 10.9553 19.5126 8.87098 19.4651C7.30679 19.4293 5.94766 18.9014 5.07847 17.4847C4.71493 16.8918 4.58722 16.225 4.4595 15.558L4.44556 15.4853V8.52107ZM14.4532 12.0093C14.4553 10.6683 13.3516 9.56989 11.9943 9.56279C10.6458 9.5557 9.52542 10.6594 9.52329 11.9972C9.52117 13.3383 10.6249 14.4366 11.9822 14.4437C13.3304 14.4508 14.4511 13.3471 14.4532 12.0093ZM15.9055 12.0285C15.8995 14.1354 14.1508 15.8671 12.0041 15.893C9.85063 15.9189 8.06435 14.1408 8.07038 11.9781C8.07676 9.85193 9.89142 8.07345 12.0133 8.1139C14.1902 8.15505 15.9119 9.88669 15.9055 12.0285ZM16.9664 8.02651C16.9696 7.51422 16.5297 7.08388 16.0103 7.09062C15.4768 7.09736 15.0539 7.51918 15.0631 8.03502C15.0723 8.54554 15.5215 8.96807 16.0391 8.95317C16.5425 8.93863 16.964 8.51787 16.9664 8.02651Z" fill="#FFFFFF" fill-rule="evenodd"></path>
  </symbol>
  <symbol xmlns:xlink="http://www.w3.org/1999/xlink" fill="none" xmlns="http://www.w3.org/2000/svg" viewBox="0 0 24 24" id="svgexport-25">
    <circle cx="12" cy="12" fill="#666666" r="12"></circle>
    <path clip-rule="evenodd" d="M4.62476 16.6502C6.24749 16.7925 7.66871 16.4058 8.9835 15.4657C8.69897 15.3933 8.45737 15.3443 8.22358 15.2705C7.34303 14.9927 6.73105 14.4102 6.34931 13.579C6.23153 13.3225 6.25742 13.3019 6.53734 13.3065C6.82648 13.3111 7.12094 13.3533 7.46472 13.2235C6.93823 13.0724 6.51712 12.8396 6.16093 12.5069C5.58868 11.9733 5.24951 11.3169 5.18991 10.5308C5.16579 10.2129 5.20587 10.1909 5.48934 10.32C5.76642 10.4467 6.05272 10.5294 6.4004 10.5315C6.18399 10.2824 5.94913 10.1022 5.78203 9.85955C5.11896 8.89705 5.00649 7.8785 5.46415 6.80176C5.58584 6.51511 5.63444 6.50411 5.84127 6.73648C6.85664 7.87708 8.07422 8.71469 9.51886 9.2167C10.156 9.43808 10.8113 9.58247 11.4818 9.65094C11.8263 9.68606 11.8557 9.64917 11.8164 9.31178C11.6748 8.11087 12.3546 6.85427 13.4561 6.2806C14.5595 5.70658 15.9733 5.86978 16.8708 6.69072C17.0454 6.85037 17.2121 6.88513 17.4317 6.82518C17.9004 6.69639 18.3524 6.53036 18.7823 6.30295C18.8487 6.26818 18.9072 6.19546 19.0325 6.24193C18.8267 6.88478 18.4198 7.37472 17.9043 7.79725C18.4116 7.73659 18.8859 7.59078 19.3773 7.39884C19.3879 7.56807 19.2886 7.65357 19.218 7.74475C18.9157 8.13571 18.5798 8.49757 18.181 8.79097C17.9948 8.92827 17.9309 9.08614 17.9344 9.31391C17.9657 11.335 17.3168 13.1373 16.1084 14.7348C14.6727 16.6332 12.7445 17.7039 10.3877 17.9899C8.44141 18.2261 6.609 17.8575 4.90432 16.8801C4.84223 16.8447 4.78192 16.8053 4.72338 16.7648C4.70281 16.7503 4.68932 16.7262 4.62476 16.6502Z" fill="#FFFFFF" fill-rule="evenodd"></path>
  </symbol>
  <symbol xmlns:xlink="http://www.w3.org/1999/xlink" fill="none" xmlns="http://www.w3.org/2000/svg" viewBox="0 0 24 24" id="svgexport-26">
    <circle cx="12" cy="12" fill="#666666" r="12"></circle>
    <path clip-rule="evenodd" d="M14.4924 12.3947L10.9515 14.1065C10.6666 14.2441 10.3359 14.0366 10.3359 13.7201V10.375C10.3359 10.0621 10.6602 9.85451 10.9444 9.98578L14.4853 11.6191C14.6226 11.6827 14.7 11.8011 14.7237 11.9289C14.7386 11.9647 14.7386 12.0016 14.7305 12.0381C14.7209 12.1818 14.6436 12.3216 14.4924 12.3947ZM11.9964 5.95699C4.28325 5.95699 4.14844 6.64276 4.14844 11.9998C4.14844 17.3565 4.28325 18.0427 11.9964 18.0427C19.7091 18.0427 19.8439 17.3565 19.8439 11.9998C19.8439 6.64276 19.7091 5.95699 11.9964 5.95699Z" fill="#FFFFFF" fill-rule="evenodd"></path>
  </symbol>
</svg>